<svg width="28" height="28" viewBox="0 0 28 28" fill="none" xmlns="http://www.w3.org/2000/svg">
<g id="Icons">
<path id="Vector" d="M23.7242 6.17026C22.4675 4.9135 20.8756 4.24323 19.1161 4.24323C17.3567 4.24323 15.7648 4.9135 14.5918 6.17026L13.8377 6.92431L13.0837 6.17026C11.9107 4.9135 10.3188 4.24323 8.55936 4.24323C6.7999 4.24323 5.20801 4.9135 4.03504 6.17026C1.52152 8.76756 1.52152 12.9567 4.03504 15.4703L12.9999 24.854C13.2513 25.1054 13.5026 25.1892 13.8377 25.1892C14.1729 25.1892 14.4242 25.0216 14.6756 24.854L23.7242 15.554C26.154 12.9567 26.154 8.76756 23.7242 6.17026ZM19.7026 14.2973H17.1891C16.9377 14.2973 16.6864 14.1297 16.5188 13.9622L15.7648 12.7892L14.6756 15.4703C14.508 15.7216 14.1729 15.973 13.8377 15.973C13.5026 15.973 13.2513 15.8054 13.0837 15.4703L11.9107 13.1243L11.0729 13.9622C10.9053 14.2135 10.7377 14.2973 10.4864 14.2973H7.97288C7.47017 14.2973 7.13504 13.9622 7.13504 13.4594C7.13504 12.9567 7.47017 12.6216 7.97288 12.6216H10.1513L11.5756 11.1973C11.7431 11.0297 11.9945 10.9459 12.3296 10.9459C12.581 11.0297 12.8323 11.1973 12.9161 11.3649L13.754 13.0405L14.7594 10.6108C14.8431 10.3594 15.1783 10.1081 15.4296 10.1081C15.7648 10.1081 16.0161 10.1919 16.1837 10.4432L17.608 12.6216H19.7026C20.2053 12.6216 20.5404 12.9567 20.5404 13.4594C20.5404 13.9622 20.2053 14.2973 19.7026 14.2973Z" fill="#1946DA"/>
</g>
</svg>
