<svg xmlns="http://www.w3.org/2000/svg" width="264" height="264" fill="none" viewBox="0 0 264 264"><path fill="#000" stroke="#000" stroke-linecap="round" stroke-linejoin="round" stroke-width="2" d="m132.96 56 14.94 15.18 20.53-5.67 5.35 20.62 20.63 5.35-5.68 20.53 15.18 14.95-15.18 14.94 5.68 20.53-20.63 5.35-5.35 20.63-20.53-5.68-14.94 15.18-14.95-15.18-20.53 5.68-5.35-20.63-20.62-5.35 5.67-20.53L62 126.96l15.18-14.95-5.67-20.53 20.62-5.35 5.35-20.62 20.53 5.67L132.96 56Z"/><path stroke="#fff" stroke-linecap="round" stroke-linejoin="round" stroke-width="2" d="M161.31 91.88v10M166.31 96.88h-10M113.32 86.88v10M118.32 91.88h-10M179.28 129.18v6M182.28 132.18h-6M92.19 149.77v6M95.19 152.77h-6M98.99 98.88v6M101.99 101.88h-6M129.96 195.43v6M132.96 198.43h-6"/><path fill="#fff" stroke="#000" stroke-linecap="round" stroke-linejoin="round" stroke-width="2" d="M162.96 143.77c0-17.22-14.51-31.06-31.98-29.94-14.88.95-26.97 13.02-27.95 27.89-.61 9.23 2.96 17.64 9 23.52 3.82 3.72 5.93 8.87 5.93 14.21v.31c0 3.31 2.69 6 6 6h18c3.31 0 6-2.69 6-6v-.44c0-5.4 2.29-10.47 6.13-14.27a29.869 29.869 0 0 0 8.87-21.29v.01Z"/><path fill="#574CFA" stroke="#574CFA" stroke-linecap="round" stroke-linejoin="round" stroke-width="2" d="M140.96 185.77h-16c-2.21 0-4 1.79-4 4v8.13c0 1.19.53 2.31 1.44 3.07l8 6.67a3.988 3.988 0 0 0 5.12 0l8-6.67c.91-.76 1.44-1.89 1.44-3.07v-8.13c0-2.21-1.79-4-4-4Z"/><path fill="#000" stroke="#000" stroke-linecap="round" stroke-linejoin="round" stroke-width="2" d="m122.96 180.77 10-6 10 6h-20Z"/><path stroke="#000" stroke-linecap="round" stroke-linejoin="round" stroke-width="2" d="m144.96 190.77-24 6M136.96 185.77l-16 4M144.96 197.77l-20.4 5h16.8M146.96 140.77l-14 34-14-34"/><path stroke="#574CFA" stroke-linecap="round" stroke-linejoin="round" stroke-width="2" d="M118.96 140.77h28"/></svg>