<svg xmlns="http://www.w3.org/2000/svg" viewBox="0 0 264 264"><path fill="#574cfa" d="M160.35 202.66c-.86.21-1.37 7.55-.94 8.02 2.23 2.42 6.42 4.31 8.54 10.26h59.54a2.46 2.46 0 0 0 2.39-1.85c.09-.35.1-.72.04-1.07l-2.86-15.21c-.48-3.19-1.91-6.17-4.11-8.53a16.15 16.15 0 0 0-8.2-4.75l-9.94-2.3c-.97-.24-1.98.26-2.36 1.19-1.83 4.37-8.47 10.54-12.4 13.92a4.468 4.468 0 0 1-5.86 0c-3.89-3.38-10.51-9.54-12.34-13.91a2.04 2.04 0 0 0-2.37-1.19l-9.94 2.3a16.114 16.114 0 0 0-12.3 13.28l-2.86 15.21c-.21 1.1.36 2.21 1.37 2.69.33.15.69.23 1.05.23h59.53c2.13-5.95 6.31-7.84 8.55-10.26"/><path fill="none" stroke="#574cfa" stroke-linecap="round" stroke-linejoin="round" stroke-width="3" d="M160.35 202.66c-.86.21-1.37 7.55-.94 8.02 2.23 2.42 6.42 4.31 8.54 10.26h59.54a2.46 2.46 0 0 0 2.39-1.85c.09-.35.1-.72.04-1.07l-2.86-15.21c-.48-3.19-1.91-6.17-4.11-8.53a16.15 16.15 0 0 0-8.2-4.75l-9.94-2.3c-.97-.24-1.98.26-2.36 1.19-1.83 4.37-8.47 10.54-12.4 13.92a4.468 4.468 0 0 1-5.86 0c-3.89-3.38-10.51-9.54-12.34-13.91a2.04 2.04 0 0 0-2.37-1.19l-9.94 2.3a16.114 16.114 0 0 0-12.3 13.28l-2.86 15.21c-.21 1.1.36 2.21 1.37 2.69.33.15.69.23 1.05.23h59.53c2.13-5.95 6.31-7.84 8.55-10.26"/><path fill="#574cfa" d="M109.52 187.4c-4.67 2.56-11.15 9.82-21.29 9.82a21.206 21.206 0 0 1-19.46-12.88 14.675 14.675 0 0 1-6.01 2.96l-11.77 2.72a16.129 16.129 0 0 0-12.31 13.28l-3.31 17.63c-.02.12.01.24.09.34.08.09.19.15.31.15h70.83a40.48 40.48 0 0 1 7.21-13.02c.44-.47 7.62-5.54 6.76-5.74-1.01-3.3-7.99-8.69-8.11-8.49"/><path fill="none" stroke="#574cfa" stroke-linecap="round" stroke-linejoin="round" stroke-width="3" d="M109.52 187.4c-4.67 2.56-11.15 9.82-21.29 9.82a21.206 21.206 0 0 1-19.46-12.88 14.675 14.675 0 0 1-6.01 2.96l-11.77 2.72a16.129 16.129 0 0 0-12.31 13.28l-3.31 17.63c-.02.12.01.24.09.34.08.09.19.15.31.15h70.83a40.48 40.48 0 0 1 7.21-13.02c.44-.47 7.62-5.54 6.76-5.74-1.01-3.3-7.99-8.69-8.11-8.49"/><path fill="none" stroke="#070e15" stroke-linecap="round" stroke-linejoin="round" stroke-width="3" d="M69.3 183.89c1.87-1.84 3.22-4.14 3.89-6.67m31.77 2.47c-2.31-5.01-2.53-11.85-.3-16.29l1.01-2.13 1.22-.3a9.017 9.017 0 0 0 6.83-8.76c0-2.24-1.82-4.05-4.05-4.05l1.09-4.44m-24.05 6.53c.36.79.25 1.72-.28 2.4-.53.66-1.15 1.25-1.84 1.75a4.45 4.45 0 0 0-1.52 2.03c-.27 1.26.25 2.55 1.32 3.26 1.07.68 2.36.93 3.61.72m-8.21-12.79v1.72"/><path fill="#fff" d="M108.18 223.62c1.23-11.96 10.28-22.03 23.65-22.03s26.36 10.06 28.18 22.03"/><path fill="none" stroke="#070e15" stroke-linecap="round" stroke-linejoin="round" stroke-width="3" d="M97.03 147.62v1.72m-24.16-6.49a9.997 9.997 0 0 1 10.14-1.67m19.09 1.96a7.567 7.567 0 0 0-10.28-1.61"/><path fill="none" stroke="#070e15" stroke-linecap="round" stroke-linejoin="round" stroke-width="3" d="m106.34 137.99 7.83 2.2c0-5.84-3.11-11.06-7.88-12.4l7.1-1.69s-.84-3.97-6.02-8.01c-2.88-2.24-11.15-7.24-23.82-.85l-.48-3.73c-7.81 1.72-21.18 10.99-15.96 27.88l.4 6.81c-2.24 0-4.05 1.82-4.05 4.05 0 4.14 2.81 7.75 6.83 8.76l1.22.3c.66 1.92 1.36 4.16 2.03 6.37 1.35 4.42 5.03 7.73 9.56 8.61 5.17 1.01 10.14-.25 14.73-4.55"/><path fill="none" stroke="#070e15" stroke-linecap="round" stroke-linejoin="round" stroke-width="3" d="M82.24 166.66c3.91 1.13 8.49.44 12.79-3.37"/><path fill="#fff" d="M160.77 223.2a25.407 25.407 0 0 0-7.99-14.62 33.376 33.376 0 0 0-8.04-5.23"/><path fill="none" stroke="#070e15" stroke-linecap="round" stroke-linejoin="round" stroke-width="3" d="M160.77 223.2a25.407 25.407 0 0 0-7.99-14.62 33.376 33.376 0 0 0-8.04-5.23"/><path fill="#fff" d="M120.67 203.62c-6.25 4.33-12.91 12.05-14.1 19.58l14.1-19.58Z"/><path fill="none" stroke="#070e15" stroke-linecap="round" stroke-linejoin="round" stroke-width="3" d="M120.67 203.62c-6.25 4.33-12.91 12.05-14.1 19.58"/><path fill="#fff" d="M120.54 202.67c2.91 4 7.56 6.35 12.51 6.34 6.71 0 11.93-6.36 14.57-12.52 5.62-2.03 9.12-13.47.8-11.64l.63-3.87c5.07-3.13 4.98-9.91 2.2-14.97l-3.15 1.27c-2.2.86-4.67.68-6.72-.48-3.91-2.2-8.54-2.75-12.86-1.54-5.92 1.51-11.85 5.24-14.33 11.83l.76 8.11c-7.84-1.69-5.61 8.96 2.03 10.99"/><path fill="none" stroke="#070e15" stroke-linecap="round" stroke-linejoin="round" stroke-width="3" d="M120.54 202.67c2.91 4 7.56 6.35 12.51 6.34 6.71 0 11.93-6.36 14.57-12.52 5.62-2.03 9.12-13.47.8-11.64l.63-3.87c5.07-3.13 4.98-9.91 2.2-14.97l-3.15 1.27c-2.2.86-4.67.68-6.72-.48-3.91-2.2-8.54-2.75-12.86-1.54-5.92 1.51-11.85 5.24-14.33 11.83l.76 8.11c-7.84-1.69-5.61 8.96 2.03 10.99m7.58-11.85v1.72m15.52-1.9v2.1"/><path fill="#fff" d="M130.48 189.45c-.91.84-1.14 2.19-.57 3.28a2.72 2.72 0 0 0 3.03 1.38"/><path fill="none" stroke="#070e15" stroke-linecap="round" stroke-linejoin="round" stroke-width="3" d="M130.48 189.45c-.91.84-1.14 2.19-.57 3.28a2.72 2.72 0 0 0 3.03 1.38"/><path fill="#fff" d="M127.36 199.16a8.55 8.55 0 0 0 9.29-.66"/><path fill="none" stroke="#070e15" stroke-linecap="round" stroke-linejoin="round" stroke-width="3" d="M127.36 199.16a8.55 8.55 0 0 0 9.29-.66"/><path fill="#fff" d="M184 158.94c-.51.5-.92 1.1-1.2 1.76a1.88 1.88 0 0 0 1.48 2.51c1.51.24 5.91.18 6.92-1.01 1.49-1.81-1.11-3.77-1.11-3.77"/><path fill="none" stroke="#070e15" stroke-linecap="round" stroke-linejoin="round" stroke-width="3" d="M184 158.94c-.51.5-.92 1.1-1.2 1.76h0a1.88 1.88 0 0 0 1.48 2.51c1.51.24 5.91.18 6.92-1.01 1.49-1.81-1.11-3.77-1.11-3.77"/><path fill="#fff" d="M173.94 147.62a7.431 7.431 0 0 1 9.51.26"/><path fill="none" stroke="#070e15" stroke-linecap="round" stroke-linejoin="round" stroke-width="3" d="M173.94 147.62a7.431 7.431 0 0 1 9.51.26"/><path fill="#fff" d="M200.16 148.41c-3.34-3.22-6.97-2.78-9.51-.27l9.51.27Z"/><path fill="none" stroke="#070e15" stroke-linecap="round" stroke-linejoin="round" stroke-width="3" d="M200.16 148.41c-3.34-3.22-6.97-2.78-9.51-.27"/><path fill="#fff" d="M182.09 169.37c3.92.57 7.92.15 11.65-1.2-.4-.33-.86-.6-1.35-.78"/><path fill="none" stroke="#070e15" stroke-linecap="round" stroke-linejoin="round" stroke-width="3" d="M182.09 169.37c3.92.57 7.92.15 11.65-1.2-.4-.33-.86-.6-1.35-.78"/><path fill="#fff" d="M193.73 152.6a3.96 3.96 0 0 1 3.13.12"/><path fill="none" stroke="#070e15" stroke-linecap="round" stroke-linejoin="round" stroke-width="3" d="M193.73 152.6a3.96 3.96 0 0 1 3.13.12"/><path fill="#fff" d="M180.15 152.22c-.99-.46-2.13-.48-3.13-.06"/><path fill="none" stroke="#070e15" stroke-linecap="round" stroke-linejoin="round" stroke-width="3" d="M180.15 152.22c-.99-.46-2.13-.48-3.13-.06"/><path fill="#070e15" stroke="#070e15" stroke-linecap="round" stroke-linejoin="round" stroke-width="3" d="m205.68 149.76 1.01-.27c1.94-4.8 2.82-9.96 2.56-15.12-.09-.28-.2-.55-.29-.83a17.204 17.204 0 0 0-9.05-10.33c-7.32-3.78-9.49-6.55-9.49-6.55-10.21 1.72-15.87 4.48-19.99 9.12-2.48 2.81-3.68 6.25-4.63 9.88.17 4.46.92 8.87 2.24 13.13l1.01.66c-.3-2.66-.53-7.92.1-10.34.83-3.16 3.85-6.02 7.1-5.44 3.4.6 5.41 4.5 8.78 5.24 1.65.36 3.37.28 4.99-.23 3.2-1.28 5.55-4.45 8.96-4.94 3.24-.47 6.17 2.48 6.89 5.69.55 3.43.48 6.93-.19 10.34h0Z"/><path fill="none" stroke="#fff" stroke-linecap="round" stroke-linejoin="round" stroke-width="3" d="M189.82 119.24a10.01 10.01 0 0 0 5.25 12.49"/><path fill="#fff" d="M202.82 186.31c-1.35-.47-2.61-1.15-3.73-2.03-2.94-2.47-2.24-7.42-1.46-10.42 2.66-2.78 4.39-6.33 4.95-10.14"/><path fill="none" stroke="#070e15" stroke-linecap="round" stroke-linejoin="round" stroke-width="3" d="M202.82 186.31c-1.35-.47-2.61-1.15-3.73-2.03-2.94-2.47-2.24-7.42-1.46-10.42 2.66-2.78 4.39-6.33 4.95-10.14"/><path fill="#fff" d="M172.1 167.67c.89 2.26 2.2 4.34 3.84 6.13.76 3.04 1.39 7.93-1.55 10.36-.83.65-1.74 1.19-2.72 1.59"/><path fill="none" stroke="#070e15" stroke-linecap="round" stroke-linejoin="round" stroke-width="3" d="M172.1 167.67c.89 2.26 2.2 4.34 3.84 6.13.76 3.04 1.39 7.93-1.55 10.36-.83.65-1.74 1.19-2.72 1.59"/><path fill="#fff" d="M171.03 163.55c-5.39-.3-3.31-10.5-3.31-10.5.57 0 1.12.23 1.53.63"/><path fill="none" stroke="#070e15" stroke-linecap="round" stroke-linejoin="round" stroke-width="3" d="M171.03 163.55c-5.39-.3-3.31-10.5-3.31-10.5.57 0 1.12.23 1.53.63"/><path fill="#fff" d="M202.55 163.69c5.38-.26 3.41-10.47 3.41-10.47-.53 0-1.04.18-1.44.53"/><path fill="none" stroke="#070e15" stroke-linecap="round" stroke-linejoin="round" stroke-width="3" d="M202.55 163.69c5.38-.26 3.41-10.47 3.41-10.47-.53 0-1.04.18-1.44.53"/><path fill="#fff" d="M175.95 173.76c4.53 4.91 7.18 5.5 10.8 5.52 1.56.05 3.12-.2 4.59-.74"/><path fill="none" stroke="#070e15" stroke-linecap="round" stroke-linejoin="round" stroke-width="3" d="M175.95 173.76c4.53 4.91 7.18 5.5 10.8 5.52 1.56.05 3.12-.2 4.59-.74M25.56 223.2h212.88"/><path fill="none" stroke="#0a0d0e" stroke-linecap="round" stroke-linejoin="round" stroke-width="3" d="M159.45 77.97c5.77-6.22 5.4-15.95-.82-21.72-2.74-2.54-6.32-4-10.06-4.09-3.96-.1-7.81 1.33-10.74 4l-.15.14-2.38 2.4-2.38-2.4c-6.1-5.9-15.84-5.74-21.74.36-2.74 2.83-4.29 6.6-4.32 10.54-.04 4.03 1.5 7.91 4.29 10.82l22.77 24.68c.72.74 1.89.78 2.66.09l.09-.09 13.93-15.12M89.61 72.85l-6.44.87m96.99-.87 6.43.87m-9.71-26.21 6.08-5.07m-89.65 5.07-6.08-5.07"/></svg>