<svg xmlns="http://www.w3.org/2000/svg" width="264" height="264" fill="none" viewBox="0 0 264 264"><path fill="#574CFA" d="m198 190.64 7.44 12.88a2 2 0 0 1 .73-2.73l14.32-8.27a2.07 2.07 0 0 1 1.52-.2c.512.14.947.478 1.21.94l-7.44-12.89a10.26 10.26 0 0 0-18.78 2.44v5.37c.225.86.561 1.687 1 2.46ZM146 138.16h-17a2 2 0 0 0-2 2v14h-15a2 2 0 0 0-2 2v17a2 2 0 0 0 2 2h15v15a2 2 0 0 0 2 2h16a2 2 0 0 0 2-2v-15h15a2 2 0 0 0 2-2v-17a2 2 0 0 0-2-2h-14v-14a2 2 0 0 0-2-2Z"/><path fill="#0A0C0E" d="M237 221.16h-12.46a10.26 10.26 0 0 0 6.14-15l-7.45-12.89a1.999 1.999 0 0 0-1.21-.94 2.07 2.07 0 0 0-1.52.2l-14.32 8.27a2 2 0 0 0-.73 2.73l7.44 12.89a10.185 10.185 0 0 0 6.16 4.75h-29.12a18.491 18.491 0 0 0 7.07-14.54V123.7c-.011-10.235-8.305-18.529-18.54-18.54h-42.94l10.65-17.28a15.25 15.25 0 0 0-1.91-18.46l-3.18-3.36-2.54-2.68a2.001 2.001 0 1 0-2.91 2.75l2.54 2.68 3.18 3.36a11.24 11.24 0 0 1 1.41 13.61l-11.94 19.38H110a2 2 0 1 0 0 4h68.46c8.028.005 14.534 6.512 14.54 14.54v82.93c-.011 8.024-6.516 14.524-14.54 14.53H95.57c-.444.004-.889-.019-1.33-.07a27.149 27.149 0 0 0 11.7-15.46 7.348 7.348 0 0 0 5.84 2.69 2 2 0 1 0 0-4c-4 0-4.28-5.1-4.28-6.66 0-.523-.204-1.026-.57-1.4-.976-13.355-11.578-23.986-24.93-25v-47.62c.011-8.024 6.516-14.525 14.54-14.53a2 2 0 1 0 0-4c-10.233.005-18.529 8.297-18.54 18.53v25.1l-6.84 2.39a16.961 16.961 0 0 0-3 1.37 17.647 17.647 0 0 0-1.4-3l-17.13-28.86a15.84 15.84 0 0 1-2-10.49l1.47-9.64a4 4 0 0 0-1.47-3.73L54 53.46a11.24 11.24 0 0 1 9.82-9.52l4.6-.53 3.63-.41a2.013 2.013 0 0 0-.45-4l-3.68.44-4.59.56A15.25 15.25 0 0 0 50 52.88L43.63 96.2a4 4 0 0 0-2.48 3.1l-1.47 9.64a23.91 23.91 0 0 0 3.07 15.78l17.17 28.91a9.2 9.2 0 0 1 .74 7.87l-3.51 9.65a36.86 36.86 0 0 0-2.24 12 11.48 11.48 0 0 0 .66 3.48c-5.847 12.445-1.407 27.296 10.31 34.49H27a2 2 0 1 0 0 4h210a2 2 0 1 0 0-4v.04ZM64.67 173.89l3.51-9.65a9.17 9.17 0 0 1 5.62-5.55l4.2-1.63v14.18a26.87 26.87 0 0 0-14.15 5.3c.23-.89.5-1.78.82-2.65ZM57 198.16c0-12.703 10.297-23 23-23s23 10.297 23 23-10.297 23-23 23a22.998 22.998 0 0 1-23-23Zm159.36 16.25-6.45-11.15 5.43-3.14 5.43-3.13 6.44 11.16a6.262 6.262 0 0 1-5.427 9.393 6.262 6.262 0 0 1-5.423-3.133Z"/><path fill="#0A0C0E" d="M79.5 187.16c-5.799 0-10.5 4.701-10.5 10.5s4.701 10.5 10.5 10.5 10.5-4.701 10.5-10.5c-.005-5.797-4.703-10.495-10.5-10.5Zm0 17a6.5 6.5 0 1 1 6.5-6.5 6.51 6.51 0 0 1-6.5 6.5Z"/></svg>